<?xml version="1.0" standalone="no"?>
<!DOCTYPE svg PUBLIC "-//W3C//DTD SVG 20010904//EN"
 "http://www.w3.org/TR/2001/REC-SVG-20010904/DTD/svg10.dtd">
<svg version="1.0" xmlns="http://www.w3.org/2000/svg"
 width="1222.000000pt" height="1280.000000pt" viewBox="0 0 1222.000000 1280.000000"
 preserveAspectRatio="xMidYMid meet">
<g transform="translate(0.000000,1280.000000) scale(0.100000,-0.100000)"
fill="#000000" stroke="none">
<path d="M7286 12785 c-11 -8 -29 -15 -41 -15 -12 0 -41 -13 -66 -29 -68 -42
-80 -78 -95 -266 -26 -324 -85 -821 -134 -1132 -79 -495 -254 -987 -459 -1293
-129 -193 -242 -305 -582 -580 -191 -154 -384 -346 -468 -465 -82 -116 -137
-232 -319 -666 -335 -796 -548 -1211 -865 -1689 -120 -180 -202 -285 -316
-403 -117 -121 -204 -193 -312 -258 -132 -79 -185 -92 -377 -94 -89 -1 -167
-6 -172 -11 -6 -6 -10 -974 -10 -2619 -1 -2120 2 -2611 12 -2621 7 -6 54 -19
103 -28 50 -9 236 -44 415 -77 179 -33 348 -64 375 -69 112 -20 817 -150 915
-169 848 -162 866 -165 1145 -186 116 -9 257 -21 315 -26 194 -16 573 -38 835
-48 143 -6 386 -16 540 -23 433 -19 1401 -16 1657 5 595 49 834 113 1100 293
277 188 585 498 677 683 55 109 55 114 56 441 0 340 1 348 72 460 20 30 135
156 257 280 272 276 338 364 381 515 14 46 16 80 12 150 -7 103 -27 165 -141
447 -95 234 -120 327 -114 428 7 114 46 175 311 481 162 186 227 300 227 394
0 83 -58 210 -207 453 -181 297 -218 385 -211 496 6 94 26 128 268 456 145
196 174 301 131 468 -44 169 -121 333 -245 522 -229 347 -421 525 -646 599
-171 56 -329 75 -940 113 -203 12 -1571 17 -2140 8 l-305 -5 -24 48 c-45 90
-40 304 10 512 68 275 157 484 525 1225 224 452 260 545 335 864 53 227 60
286 66 562 8 371 -7 504 -88 789 -87 306 -185 481 -376 672 -189 190 -413 317
-657 373 -50 12 -119 28 -153 36 -83 19 -252 18 -277 -1z"/>
<path d="M415 6134 c-178 -35 -323 -159 -387 -330 l-23 -59 -3 -2535 c-1
-1634 1 -2542 7 -2555 6 -11 15 -38 21 -61 23 -93 131 -219 237 -276 108 -59
90 -58 1008 -58 923 0 893 -2 1017 61 81 41 176 136 212 212 65 139 61 -54 61
2672 0 2312 -1 2474 -17 2538 -50 194 -178 329 -364 384 -54 16 -131 18 -879
19 -672 2 -833 0 -890 -12z"/>
</g>
</svg>
