<?xml version="1.0" standalone="no"?>
<!DOCTYPE svg PUBLIC "-//W3C//DTD SVG 20010904//EN"
 "http://www.w3.org/TR/2001/REC-SVG-20010904/DTD/svg10.dtd">
<svg version="1.0" xmlns="http://www.w3.org/2000/svg"
 width="1280.000000pt" height="640.000000pt" viewBox="0 0 1280.000000 640.000000"
 preserveAspectRatio="xMidYMid meet">
<g transform="translate(0.000000,640.000000) scale(0.100000,-0.100000)"
fill="#000000" stroke="none">
<path d="M9195 4701 c-45 -11 -68 -26 -132 -82 -77 -68 -112 -83 -289 -118
-313 -63 -652 -78 -1354 -62 -701 16 -1088 43 -1545 107 -152 21 -205 34 -341
79 -173 58 -264 74 -330 56 -23 -6 -91 -46 -152 -89 -127 -90 -163 -103 -352
-126 -135 -17 -210 -36 -252 -63 -14 -10 -69 -57 -121 -104 -78 -70 -109 -91
-166 -112 -182 -68 -381 -91 -786 -92 l-310 0 -98 -33 c-134 -45 -230 -91
-473 -225 -115 -63 -237 -129 -271 -146 -34 -17 -114 -65 -178 -107 -122 -80
-223 -124 -290 -124 -62 0 -165 25 -236 58 -90 41 -181 106 -352 251 -192 163
-285 232 -372 274 -124 62 -217 79 -327 61 l-38 -7 76 -80 c112 -119 119 -136
119 -287 0 -69 -6 -173 -13 -232 -16 -136 -6 -204 48 -316 l40 -84 -98 -103
c-152 -160 -183 -233 -222 -540 -45 -352 -91 -438 -289 -543 -61 -33 -79 -47
-72 -56 18 -22 176 -95 229 -107 89 -19 239 15 377 84 167 83 387 247 489 363
42 48 135 168 208 267 190 260 394 458 543 529 154 72 393 55 680 -47 66 -24
235 -93 375 -153 170 -74 364 -147 580 -220 302 -102 424 -144 735 -251 353
-123 642 -197 1185 -305 206 -41 551 -111 765 -155 643 -131 855 -156 1305
-156 392 1 549 14 1300 105 223 28 443 54 490 60 47 6 229 24 405 40 176 17
383 37 460 45 546 56 803 65 1100 37 469 -45 585 -54 720 -54 156 0 226 13
357 64 l83 32 -69 13 c-70 13 -86 23 -86 56 0 23 -9 21 -32 -8 -15 -20 -25
-23 -51 -18 -18 3 -40 15 -49 27 -16 19 -18 20 -30 4 -20 -26 -64 -12 -89 29
l-21 34 -27 -25 c-40 -38 -77 -35 -103 11 l-22 36 -9 -26 c-12 -37 -53 -37
-85 1 -21 25 -22 25 -17 5 6 -20 3 -23 -22 -23 -16 0 -46 12 -67 26 -36 24
-40 25 -51 10 -18 -24 -33 -20 -63 15 l-26 32 -22 -29 -23 -28 -38 27 -38 27
-16 -21 c-13 -17 -20 -19 -36 -11 -11 6 -25 18 -33 26 -17 22 -30 20 -30 -4 0
-33 -35 -24 -56 15 -10 19 -22 35 -25 35 -4 0 -10 -16 -13 -35 -9 -47 -37 -47
-69 0 l-24 36 -21 -32 -20 -32 -15 24 c-8 13 -19 33 -25 43 -9 18 -11 17 -27
-14 l-18 -34 -32 38 -31 38 -13 -41 c-6 -23 -17 -41 -24 -41 -7 0 -28 23 -47
50 l-35 49 -24 -47 -24 -47 -23 48 -22 49 -14 -43 c-8 -24 -20 -45 -26 -47 -7
-2 -22 18 -34 44 l-21 49 -21 -43 c-11 -23 -25 -41 -31 -39 -5 2 -17 24 -25
50 -8 26 -17 47 -20 47 -3 0 -18 -18 -34 -40 -17 -22 -33 -40 -37 -40 -3 0
-13 17 -21 38 l-14 37 -17 -32 c-14 -25 -24 -33 -45 -32 -56 1 -416 55 -407
61 19 11 391 87 575 117 589 97 896 104 1672 40 l248 -21 97 65 c129 84 196
146 227 209 23 45 26 65 26 150 0 54 12 212 27 351 65 616 13 975 -157 1079
-67 41 -139 55 -311 63 -85 3 -228 13 -319 20 -371 33 -883 59 -1460 75 -694
19 -635 14 -720 53 -266 121 -517 190 -605 168z"/>
</g>
</svg>
